# xmcd
#
# Track frame offsets:
#	150
#	19814
#	31841
#	44458
#	58635
#	71351
#	84151
#	94345
#	108431
#	120906
#	133689
#	149709
#	167595
#	178743
#	189121
#
# Disc length: 2751 seconds
#
# Revision: 2
# Processed by: cddbd v1.5.2PL0 Copyright (c) Steve Scherf et al.
# Submitted via: audiograbber 1.83.01
#
DISCID=c40abd0f
DTITLE=Various Artist - Die 60 größten Kinderhits - CD4
DYEAR=2014
DGENRE=kids
TTITLE0=Auf dem Bauernhof
TTITLE1=Du da im Radio
TTITLE2=Im Kindergarten
TTITLE3=Die Jahresuhr
TTITLE4=Papi, wach auf
TTITLE5=Ich bau mir eine Höhle
TTITLE6=Stups, der kleine Osterhase
TTITLE7=Nie mehr Schule
TTITLE8=Sommerkinder
TTITLE9=Bananenbrot-Song
TTITLE10=99 Luftballons
TTITLE11=Schulbus
TTITLE12=Wie schön, dass du geboren bist
TTITLE13=Mein Platz im Auto
TTITLE14=Und ganz doll mich
EXTD=
EXTT0=
EXTT1=
EXTT2=
EXTT3=
EXTT4=
EXTT5=
EXTT6=
EXTT7=
EXTT8=
EXTT9=
EXTT10=
EXTT11=
EXTT12=
EXTT13=
EXTT14=
PLAYORDER=
